<svg xmlns="http://www.w3.org/2000/svg" viewBox="0 0 64 64">
  <defs>
    <linearGradient id="jade" x1="8" y1="6" x2="56" y2="60" gradientUnits="userSpaceOnUse">
      <stop stop-color="#20E0A3"/>
      <stop offset="1" stop-color="#08A978"/>
    </linearGradient>
    <linearGradient id="glow" x1="18" y1="12" x2="44" y2="49" gradientUnits="userSpaceOnUse">
      <stop stop-color="#FFF" stop-opacity=".35"/>
      <stop offset="1" stop-color="#FFF" stop-opacity="0"/>
    </linearGradient>
  </defs>
  <rect x="3" y="3" width="58" height="58" rx="15" fill="url(#jade)"/>
  <path d="M18 4h28c8 0 14 6 14 14v10C48 20 31 16 5 20v-2C5 10 11 4 18 4Z" fill="url(#glow)"/>
  <path d="M25 17h-3.5c-2.6 0-4.2 1.5-4.2 4.2v5.1c0 2.8-1.2 4.4-3.8 4.8 2.6.5 3.8 2.1 3.8 4.9v6.8c0 2.7 1.6 4.2 4.2 4.2H25" fill="none" stroke="#FFF" stroke-width="4" stroke-linecap="round" stroke-linejoin="round"/>
  <path d="M39 17h3.5c2.6 0 4.2 1.5 4.2 4.2v5.1c0 2.8 1.2 4.4 3.8 4.8-2.6.5-3.8 2.1-3.8 4.9v6.8c0 2.7-1.6 4.2-4.2 4.2H39" fill="none" stroke="#FFF" stroke-width="4" stroke-linecap="round" stroke-linejoin="round"/>
  <circle cx="32" cy="25" r="3" fill="#FFF"/>
  <circle cx="32" cy="39" r="3" fill="#D9FFF2"/>
  <path d="M32 28v8" stroke="#FFF" stroke-width="2.5" stroke-linecap="round"/>
</svg>
